<?xml version="1.0" standalone="no"?>
<!DOCTYPE svg PUBLIC "-//W3C//DTD SVG 20010904//EN"
 "http://www.w3.org/TR/2001/REC-SVG-20010904/DTD/svg10.dtd">
<svg version="1.0" xmlns="http://www.w3.org/2000/svg"
 width="32.000000pt" height="32.000000pt" viewBox="0 0 32.000000 32.000000"
 preserveAspectRatio="xMidYMid meet">

<g transform="translate(0.000000,32.000000) scale(0.100000,-0.100000)"
fill="#000000" stroke="none">
<path d="M92 244 l-52 -46 0 -79 c0 -75 1 -79 24 -85 48 -12 66 3 66 52 0 42
1 44 30 44 29 0 30 -2 30 -45 0 -39 3 -45 24 -51 14 -3 34 -3 45 1 19 6 21 14
21 85 l0 78 -52 46 c-29 25 -60 46 -68 46 -8 0 -39 -21 -68 -46z m122 -11 l46
-38 0 -72 c0 -71 -1 -73 -25 -73 -22 0 -25 4 -25 34 0 55 -8 66 -50 66 -42 0
-50 -11 -50 -66 0 -30 -3 -34 -25 -34 -24 0 -25 2 -25 73 l0 72 46 38 c26 20
50 37 54 37 4 0 28 -17 54 -37z"/>
</g>
</svg>
